<svg width="152" height="144" viewBox="0 0 152 144" fill="none" xmlns="http://www.w3.org/2000/svg">
<path d="M44.3426 121.381C15.4345 102.905 -2.38359 79.1398 4.54476 68.2992C11.4731 57.4587 40.5243 63.6481 69.4324 82.1237C98.3405 100.599 116.159 124.365 109.23 135.205C102.302 146.046 73.2507 139.856 44.3426 121.381Z" fill="white"/>
<path d="M42.6812 8.62848C35.7529 19.469 53.571 43.2344 82.4791 61.71C111.387 80.1856 140.438 86.3751 147.367 75.5345M42.6812 8.62848C49.6096 -2.21206 78.6608 3.97738 107.569 22.453C136.477 40.9286 154.295 64.694 147.367 75.5345M42.6812 8.62848L4.54476 68.2992M147.367 75.5345L109.23 135.205M4.54476 68.2992C-2.38359 79.1398 15.4345 102.905 44.3426 121.381C73.2507 139.856 102.302 146.046 109.23 135.205M4.54476 68.2992C11.4731 57.4587 40.5243 63.6481 69.4324 82.1237C98.3405 100.599 116.159 124.365 109.23 135.205" stroke="white" stroke-width="5"/>
</svg>
