<svg width="243" height="247" viewBox="0 0 243 247" fill="none" xmlns="http://www.w3.org/2000/svg">
<path d="M19.4265 115.477C17.4927 112.063 17.2463 107.616 18.9092 102.2C20.5741 96.7769 24.0932 90.6168 29.3037 84.1056C39.7152 71.0948 56.5477 57.096 77.3653 45.3032C98.183 33.5104 118.844 26.2699 135.356 24.0287C143.62 22.9071 150.713 23.0558 156.22 24.4157C161.72 25.774 165.408 28.2715 167.342 31.6854C169.276 35.0993 169.522 39.5464 167.859 44.9624C166.194 50.3854 162.675 56.5455 157.465 63.0567C147.053 76.0675 130.221 90.0663 109.403 101.859C88.5856 113.652 67.9247 120.892 51.4123 123.134C43.1488 124.255 36.0559 124.107 30.5485 122.747C25.0482 121.388 21.3604 118.891 19.4265 115.477Z" fill="white" stroke="white" stroke-width="5"/>
<path d="M21.5868 118.276L137.489 185.668C150.759 193.384 167.416 183.892 167.541 168.541L168.632 34.9772" stroke="white" stroke-width="5"/>
</svg>
