<svg width="170" height="139" viewBox="0 0 170 139" fill="none" xmlns="http://www.w3.org/2000/svg">
<path d="M159.709 73.0303C161.459 80.8516 156.276 90.252 144.606 99.1999C133.119 108.008 116.079 115.747 96.2022 120.193C76.325 124.639 57.6118 124.898 43.4669 121.823C29.0972 118.7 20.4031 112.404 18.6536 104.583C16.9041 96.7613 22.0871 87.3609 33.7566 78.4131C45.2436 69.6051 62.2836 61.8664 82.1608 57.4201C102.038 52.9739 120.751 52.7151 134.896 55.7895C149.266 58.9128 157.96 65.2091 159.709 73.0303Z" stroke="white" stroke-width="5"/>
<path d="M18.6299 104.588C14.3298 85.3638 17.1556 65.3725 27.3459 48.8195C37.5362 32.2664 53.773 20.6156 72.4844 16.4301C91.1958 12.2446 110.849 15.8673 127.121 26.5012C143.392 37.135 155.433 53.801 159.733 73.025" stroke="white" stroke-width="5"/>
<path d="M159.733 73.0249C155.433 53.8008 143.392 37.1349 127.121 26.501C110.849 15.8672 91.1958 12.2445 72.4844 16.43C57.9876 19.6727 35.3575 50.0717 40.6613 73.7818" stroke="white" stroke-width="5"/>
</svg>
