<svg width="267" height="299" viewBox="0 0 267 299" fill="none" xmlns="http://www.w3.org/2000/svg">
<path d="M213.808 53.9429C226.678 59.9443 233.752 77.0556 233.697 101.399C233.643 125.513 226.542 155.743 212.294 186.297C198.047 216.85 179.454 241.722 161.016 257.263C142.403 272.953 124.748 278.533 111.878 272.532C99.0084 266.531 91.9346 249.419 91.9893 225.076C92.0434 200.962 99.1449 170.732 113.392 140.178C127.64 109.624 146.233 84.7528 164.67 69.2114C183.283 53.5217 200.938 47.9415 213.808 53.9429Z" stroke="white" stroke-width="5"/>
<path d="M112.544 271.104C83.1527 257.398 59.9196 233.628 48.5694 203.708C37.2192 173.788 38.3372 140.907 51.6772 112.299C65.0173 83.6914 89.4868 61.6997 119.703 51.1622C149.919 40.6246 183.75 41.6656 213.142 55.3711" stroke="white" stroke-width="5"/>
<path d="M213.142 55.371C183.75 41.6654 149.918 40.6244 119.702 51.162C89.4864 61.6995 65.0169 83.6912 51.6769 112.299C41.3416 134.463 58.2514 194.517 94.5019 211.421" stroke="white" stroke-width="5"/>
</svg>
